<svg xmlns="http://www.w3.org/2000/svg" viewBox="0 0 1024 1024"><defs><linearGradient id="bg" x1="0" y1="0" x2="1024" y2="1024"><stop offset="0" stop-color="#1a2836"/><stop offset="1" stop-color="#0a0e14"/></linearGradient><linearGradient id="book" x1="0" y1="0" x2="1" y2="1"><stop offset="0" stop-color="#38b6ff"/><stop offset="1" stop-color="#0066dd"/></linearGradient><radialGradient id="glow" cx="70%" cy="25%" r="45%"><stop offset="0" stop-color="#4dc4ff" stop-opacity="0.35"/><stop offset="1" stop-color="#0066dd" stop-opacity="0"/></radialGradient></defs><rect width="1024" height="1024" rx="224" fill="url(#bg)"/><circle cx="720" cy="256" r="280" fill="url(#glow)"/><g transform="translate(512 508)"><rect x="-292" y="-210" width="328" height="420" rx="36" fill="url(#book)"/><rect x="-252" y="-168" width="248" height="34" rx="12" fill="#061018" opacity="0.45"/><rect x="-252" y="-118" width="198" height="28" rx="8" fill="#061018" opacity="0.3"/><rect x="-252" y="-78" width="222" height="28" rx="8" fill="#061018" opacity="0.3"/><rect x="-252" y="-38" width="182" height="28" rx="8" fill="#061018" opacity="0.3"/><path d="M-210 118L-88 48 42 78 228-42" stroke="#00e676" stroke-width="26" fill="none" stroke-linecap="round" stroke-linejoin="round"/><circle cx="228" cy="-42" r="40" fill="#ffd54f"/><path d="M228-58v32M212-42h32" stroke="#0a0e14" stroke-width="6" stroke-linecap="round"/></g></svg>
